<svg width="800" height="500" xmlns="http://www.w3.org/2000/svg" viewBox="0 0 800 500">
  <!-- Background -->
  <rect width="800" height="500" fill="#f8f9fa"/>
  
  <!-- Title -->
  <text x="400" y="25" text-anchor="middle" font-family="Arial, sans-serif" font-size="18" font-weight="bold" fill="#2c3e50">RAM: Memoria Volatile vs Memoria di Massa</text>
  
  <!-- RAM Section (Left) -->
  <rect x="50" y="60" width="300" height="380" fill="#3498db" stroke="#2c3e50" stroke-width="3" rx="10"/>
  <text x="200" y="90" text-anchor="middle" font-family="Arial, sans-serif" font-size="16" font-weight="bold" fill="white">RAM (Volatile)</text>
  
  <!-- RAM visualization -->
  <rect x="80" y="110" width="240" height="120" fill="#2980b9" stroke="white" stroke-width="2"/>
  <text x="200" y="130" text-anchor="middle" font-family="Arial, sans-serif" font-size="12" font-weight="bold" fill="white">SPAZIO DI LAVORO</text>
  
  <!-- RAM cells with data -->
  <rect x="90" y="145" width="50" height="20" fill="#ecf0f1" stroke="#2c3e50" stroke-width="1"/>
  <text x="115" y="158" text-anchor="middle" font-family="Arial, sans-serif" font-size="8" fill="#2c3e50">Browser</text>
  <rect x="150" y="145" width="50" height="20" fill="#ecf0f1" stroke="#2c3e50" stroke-width="1"/>
  <text x="175" y="158" text-anchor="middle" font-family="Arial, sans-serif" font-size="8" fill="#2c3e50">Word</text>
  <rect x="210" y="145" width="50" height="20" fill="#ecf0f1" stroke="#2c3e50" stroke-width="1"/>
  <text x="235" y="158" text-anchor="middle" font-family="Arial, sans-serif" font-size="8" fill="#2c3e50">Spotify</text>
  <rect x="270" y="145" width="40" height="20" fill="#ecf0f1" stroke="#2c3e50" stroke-width="1"/>
  <text x="290" y="158" text-anchor="middle" font-family="Arial, sans-serif" font-size="8" fill="#2c3e50">Video</text>
  
  <rect x="90" y="170" width="50" height="20" fill="#ecf0f1" stroke="#2c3e50" stroke-width="1"/>
  <text x="115" y="183" text-anchor="middle" font-family="Arial, sans-serif" font-size="8" fill="#2c3e50">Immagini</text>
  <rect x="150" y="170" width="50" height="20" fill="#ecf0f1" stroke="#2c3e50" stroke-width="1"/>
  <text x="175" y="183" text-anchor="middle" font-family="Arial, sans-serif" font-size="8" fill="#2c3e50">Sistema</text>
  <rect x="210" y="170" width="50" height="20" fill="#95a5a6" stroke="#2c3e50" stroke-width="1"/>
  <text x="235" y="183" text-anchor="middle" font-family="Arial, sans-serif" font-size="8" fill="white">Libero</text>
  <rect x="270" y="170" width="40" height="20" fill="#95a5a6" stroke="#2c3e50" stroke-width="1"/>
  <text x="290" y="183" text-anchor="middle" font-family="Arial, sans-serif" font-size="8" fill="white">Libero</text>
  
  <!-- Speed indicator -->
  <rect x="80" y="250" width="240" height="40" fill="#e74c3c" stroke="white" stroke-width="1"/>
  <text x="200" y="265" text-anchor="middle" font-family="Arial, sans-serif" font-size="12" font-weight="bold" fill="white">VELOCITÀ: ULTRA-RAPIDA</text>
  <text x="200" y="280" text-anchor="middle" font-family="Arial, sans-serif" font-size="10" fill="white">Accesso immediato ai dati</text>
  
  <!-- Volatility demo -->
  <rect x="80" y="310" width="240" height="60" fill="#f39c12" stroke="white" stroke-width="1"/>
  <text x="200" y="330" text-anchor="middle" font-family="Arial, sans-serif" font-size="12" font-weight="bold" fill="white">CARATTERISTICA: VOLATILE</text>
  <text x="200" y="345" text-anchor="middle" font-family="Arial, sans-serif" font-size="10" fill="white">Spegnimento = Perdita dati</text>
  <text x="200" y="358" text-anchor="middle" font-family="Arial, sans-serif" font-size="9" fill="white">💡 → 💀 (tutto scompare)</text>
  
  <!-- Power switch animation -->
  <rect x="80" y="380" width="240" height="40" fill="#e74c3c" stroke="white" stroke-width="1"/>
  <circle cx="150" cy="400" r="8" fill="#27ae60"/>
  <text x="150" y="405" text-anchor="middle" font-family="Arial, sans-serif" font-size="8" fill="white">ON</text>
  <path d="M 170 400 L 210 400" stroke="white" stroke-width="2" fill="none" marker-end="url(#arrowhead)"/>
  <circle cx="230" cy="400" r="8" fill="#e74c3c"/>
  <text x="230" y="405" text-anchor="middle" font-family="Arial, sans-serif" font-size="8" fill="white">OFF</text>
  <text x="270" y="405" text-anchor="middle" font-family="Arial, sans-serif" font-size="10" fill="white">= VUOTO</text>
  
  <!-- Storage Section (Right) -->
  <rect x="450" y="60" width="300" height="380" fill="#27ae60" stroke="#2c3e50" stroke-width="3" rx="10"/>
  <text x="600" y="90" text-anchor="middle" font-family="Arial, sans-serif" font-size="16" font-weight="bold" fill="white">STORAGE (Permanente)</text>
  
  <!-- Storage visualization -->
  <rect x="480" y="110" width="240" height="120" fill="#229954" stroke="white" stroke-width="2"/>
  <text x="600" y="130" text-anchor="middle" font-family="Arial, sans-serif" font-size="12" font-weight="bold" fill="white">ARCHIVIO PERMANENTE</text>
  
  <!-- Storage files -->
  <rect x="490" y="145" width="50" height="20" fill="#ecf0f1" stroke="#2c3e50" stroke-width="1"/>
  <text x="515" y="158" text-anchor="middle" font-family="Arial, sans-serif" font-size="8" fill="#2c3e50">Windows</text>
  <rect x="550" y="145" width="50" height="20" fill="#ecf0f1" stroke="#2c3e50" stroke-width="1"/>
  <text x="575" y="158" text-anchor="middle" font-family="Arial, sans-serif" font-size="8" fill="#2c3e50">Office</text>
  <rect x="610" y="145" width="50" height="20" fill="#ecf0f1" stroke="#2c3e50" stroke-width="1"/>
  <text x="635" y="158" text-anchor="middle" font-family="Arial, sans-serif" font-size="8" fill="#2c3e50">Giochi</text>
  <rect x="670" y="145" width="40" height="20" fill="#ecf0f1" stroke="#2c3e50" stroke-width="1"/>
  <text x="690" y="158" text-anchor="middle" font-family="Arial, sans-serif" font-size="8" fill="#2c3e50">Foto</text>
  
  <rect x="490" y="170" width="50" height="20" fill="#ecf0f1" stroke="#2c3e50" stroke-width="1"/>
  <text x="515" y="183" text-anchor="middle" font-family="Arial, sans-serif" font-size="8" fill="#2c3e50">Video</text>
  <rect x="550" y="170" width="50" height="20" fill="#ecf0f1" stroke="#2c3e50" stroke-width="1"/>
  <text x="575" y="183" text-anchor="middle" font-family="Arial, sans-serif" font-size="8" fill="#2c3e50">Musica</text>
  <rect x="610" y="170" width="50" height="20" fill="#ecf0f1" stroke="#2c3e50" stroke-width="1"/>
  <text x="635" y="183" text-anchor="middle" font-family="Arial, sans-serif" font-size="8" fill="#2c3e50">Docs</text>
  <rect x="670" y="170" width="40" height="20" fill="#ecf0f1" stroke="#2c3e50" stroke-width="1"/>
  <text x="690" y="183" text-anchor="middle" font-family="Arial, sans-serif" font-size="8" fill="#2c3e50">App</text>
  
  <!-- Speed indicator -->
  <rect x="480" y="250" width="240" height="40" fill="#f39c12" stroke="white" stroke-width="1"/>
  <text x="600" y="265" text-anchor="middle" font-family="Arial, sans-serif" font-size="12" font-weight="bold" fill="white">VELOCITÀ: PIÙ LENTA</text>
  <text x="600" y="280" text-anchor="middle" font-family="Arial, sans-serif" font-size="10" fill="white">Tempo di accesso maggiore</text>
  
  <!-- Persistence demo -->
  <rect x="480" y="310" width="240" height="60" fill="#3498db" stroke="white" stroke-width="1"/>
  <text x="600" y="330" text-anchor="middle" font-family="Arial, sans-serif" font-size="12" font-weight="bold" fill="white">CARATTERISTICA: PERMANENTE</text>
  <text x="600" y="345" text-anchor="middle" font-family="Arial, sans-serif" font-size="10" fill="white">Spegnimento = Dati conservati</text>
  <text x="600" y="358" text-anchor="middle" font-family="Arial, sans-serif" font-size="9" fill="white">💡 → 💀 → 💡 (tutto rimane)</text>
  
  <!-- Power switch persistence -->
  <rect x="480" y="380" width="240" height="40" fill="#27ae60" stroke="white" stroke-width="1"/>
  <circle cx="550" cy="400" r="8" fill="#27ae60"/>
  <text x="550" y="405" text-anchor="middle" font-family="Arial, sans-serif" font-size="8" fill="white">ON</text>
  <path d="M 570 400 L 610 400" stroke="white" stroke-width="2" fill="none" marker-end="url(#arrowhead2)"/>
  <circle cx="630" cy="400" r="8" fill="#e74c3c"/>
  <text x="630" y="405" text-anchor="middle" font-family="Arial, sans-serif" font-size="8" fill="white">OFF</text>
  <path d="M 650 400 L 690 400" stroke="white" stroke-width="2" fill="none" marker-end="url(#arrowhead3)"/>
  <circle cx="710" cy="400" r="8" fill="#27ae60"/>
  <text x="710" y="405" text-anchor="middle" font-family="Arial, sans-serif" font-size="8" fill="white">ON</text>
  
  <!-- Data flow between RAM and Storage -->
  <path d="M 350 200 Q 400 150 450 200" stroke="#9b59b6" stroke-width="4" fill="none" marker-end="url(#arrowhead4)"/>
  <text x="400" y="140" text-anchor="middle" font-family="Arial, sans-serif" font-size="10" font-weight="bold" fill="#9b59b6">CARICAMENTO</text>
  
  <path d="M 450 220 Q 400 270 350 220" stroke="#e67e22" stroke-width="4" fill="none" marker-end="url(#arrowhead5)"/>
  <text x="400" y="280" text-anchor="middle" font-family="Arial, sans-serif" font-size="10" font-weight="bold" fill="#e67e22">SALVATAGGIO</text>
  
  <!-- Desk analogy -->
  <text x="400" y="460" text-anchor="middle" font-family="Arial, sans-serif" font-size="14" font-weight="bold" fill="#2c3e50">METAFORA: RAM = Scrivania | Storage = Archivio</text>
  <text x="400" y="480" text-anchor="middle" font-family="Arial, sans-serif" font-size="12" fill="#7f8c8d">Lavori sulla scrivania (RAM), conservi nell'archivio (Storage)</text>
  
  <!-- Arrow markers -->
  <defs>
    <marker id="arrowhead" markerWidth="10" markerHeight="7" refX="9" refY="3.5" orient="auto">
      <polygon points="0 0, 10 3.5, 0 7" fill="white"/>
    </marker>
    <marker id="arrowhead2" markerWidth="10" markerHeight="7" refX="9" refY="3.5" orient="auto">
      <polygon points="0 0, 10 3.5, 0 7" fill="white"/>
    </marker>
    <marker id="arrowhead3" markerWidth="10" markerHeight="7" refX="9" refY="3.5" orient="auto">
      <polygon points="0 0, 10 3.5, 0 7" fill="white"/>
    </marker>
    <marker id="arrowhead4" markerWidth="10" markerHeight="7" refX="9" refY="3.5" orient="auto">
      <polygon points="0 0, 10 3.5, 0 7" fill="#9b59b6"/>
    </marker>
    <marker id="arrowhead5" markerWidth="10" markerHeight="7" refX="9" refY="3.5" orient="auto">
      <polygon points="0 0, 10 3.5, 0 7" fill="#e67e22"/>
    </marker>
  </defs>
</svg>
