<svg width="800" height="400" xmlns="http://www.w3.org/2000/svg">
  <defs>
    <pattern id="serverPattern" patternUnits="userSpaceOnUse" width="20" height="20">
      <rect width="20" height="20" fill="#2C3E50"/>
      <rect x="2" y="2" width="16" height="4" fill="#74B9FF"/>
      <rect x="2" y="8" width="16" height="4" fill="#74B9FF"/>
      <rect x="2" y="14" width="16" height="4" fill="#74B9FF"/>
    </pattern>
    <linearGradient id="buildingGradient" x1="0%" y1="0%" x2="100%" y2="100%">
      <stop offset="0%" style="stop-color:#636E72;stop-opacity:1" />
      <stop offset="100%" style="stop-color:#2D3436;stop-opacity:1" />
    </linearGradient>
  </defs>
  
  <!-- Background -->
  <rect width="800" height="400" fill="#F0F3F4"/>
  
  <!-- Title -->
  <text x="400" y="25" text-anchor="middle" font-family="Arial, sans-serif" font-size="18" font-weight="bold" fill="#2C3E50">Sicurezza di un Data Center Cloud</text>
  
  <!-- Ground -->
  <rect x="0" y="320" width="800" height="80" fill="#5D4E37"/>
  
  <!-- Multiple security perimeters -->
  <!-- Outer fence -->
  <rect x="80" y="280" width="640" height="40" fill="none" stroke="#8B4513" stroke-width="3" stroke-dasharray="10,5"/>
  <text x="90" y="275" font-family="Arial, sans-serif" font-size="10" fill="#8B4513">Recinzione esterna</text>
  
  <!-- Inner fence -->
  <rect x="120" y="260" width="560" height="60" fill="none" stroke="#D2691E" stroke-width="2" stroke-dasharray="5,3"/>
  <text x="130" y="255" font-family="Arial, sans-serif" font-size="10" fill="#D2691E">Perimetro interno</text>
  
  <!-- Main building -->
  <rect x="200" y="100" width="400" height="180" fill="url(#buildingGradient)" stroke="#2D3436" stroke-width="2"/>
  
  <!-- Server racks inside -->
  <rect x="220" y="140" width="60" height="120" fill="url(#serverPattern)"/>
  <rect x="300" y="140" width="60" height="120" fill="url(#serverPattern)"/>
  <rect x="380" y="140" width="60" height="120" fill="url(#serverPattern)"/>
  <rect x="460" y="140" width="60" height="120" fill="url(#serverPattern)"/>
  <rect x="540" y="140" width="60" height="120" fill="url(#serverPattern)"/>
  
  <!-- Building details -->
  <text x="400" y="125" text-anchor="middle" font-family="Arial, sans-serif" font-size="14" font-weight="bold" fill="white">DATA CENTER</text>
  
  <!-- Security features -->
  <!-- Cameras -->
  <circle cx="180" cy="120" r="8" fill="#E74C3C"/>
  <rect x="175" y="115" width="10" height="10" fill="#2C3E50"/>
  <text x="160" y="110" font-family="Arial, sans-serif" font-size="8" fill="#E74C3C">Telecamere</text>
  
  <circle cx="620" cy="120" r="8" fill="#E74C3C"/>
  <rect x="615" y="115" width="10" height="10" fill="#2C3E50"/>
  
  <!-- Guards -->
  <circle cx="150" cy="290" r="10" fill="#FDCB6E"/>
  <rect x="145" y="300" width="10" height="15" fill="#0984E3"/>
  <text x="130" y="330" font-family="Arial, sans-serif" font-size="8" fill="#0984E3">Guardie 24/7</text>
  
  <circle cx="650" cy="290" r="10" fill="#FDCB6E"/>
  <rect x="645" y="300" width="10" height="15" fill="#0984E3"/>
  
  <!-- Access control -->
  <rect x="350" y="280" width="100" height="10" fill="#E17055"/>
  <rect x="390" y="275" width="20" height="20" fill="#74B9FF"/>
  <text x="400" y="265" text-anchor="middle" font-family="Arial, sans-serif" font-size="8" fill="#74B9FF">Accesso biometrico</text>
  
  <!-- Security layers labels -->
  <rect x="50" y="50" width="180" height="120" rx="5" fill="#DDD" stroke="#2C3E50" stroke-width="1"/>
  <text x="140" y="70" text-anchor="middle" font-family="Arial, sans-serif" font-size="12" font-weight="bold" fill="#2C3E50">Livelli di Sicurezza</text>
  
  <text x="60" y="90" font-family="Arial, sans-serif" font-size="10" fill="#E74C3C">🔴 Sicurezza Fisica:</text>
  <text x="60" y="105" font-family="Arial, sans-serif" font-size="9" fill="#2C3E50">• Recinzioni multiple</text>
  <text x="60" y="118" font-family="Arial, sans-serif" font-size="9" fill="#2C3E50">• Guardie armate</text>
  <text x="60" y="131" font-family="Arial, sans-serif" font-size="9" fill="#2C3E50">• Controlli biometrici</text>
  <text x="60" y="144" font-family="Arial, sans-serif" font-size="9" fill="#2C3E50">• Telecamere 360°</text>
  <text x="60" y="157" font-family="Arial, sans-serif" font-size="9" fill="#2C3E50">• Sistemi anti-intrusione</text>
  
  <!-- Technical security -->
  <rect x="570" y="50" width="180" height="140" rx="5" fill="#DDD" stroke="#2C3E50" stroke-width="1"/>
  <text x="660" y="70" text-anchor="middle" font-family="Arial, sans-serif" font-size="12" font-weight="bold" fill="#2C3E50">Sicurezza Tecnica</text>
  
  <text x="580" y="90" font-family="Arial, sans-serif" font-size="10" fill="#74B9FF">🔵 Protezione Dati:</text>
  <text x="580" y="105" font-family="Arial, sans-serif" font-size="9" fill="#2C3E50">• Crittografia end-to-end</text>
  <text x="580" y="118" font-family="Arial, sans-serif" font-size="9" fill="#2C3E50">• Backup ridondanti</text>
  <text x="580" y="131" font-family="Arial, sans-serif" font-size="9" fill="#2C3E50">• Monitoraggio 24/7</text>
  <text x="580" y="144" font-family="Arial, sans-serif" font-size="9" fill="#2C3E50">• Firewall avanzati</text>
  <text x="580" y="157" font-family="Arial, sans-serif" font-size="9" fill="#2C3E50">• Sistemi anti-DDoS</text>
  <text x="580" y="170" font-family="Arial, sans-serif" font-size="9" fill="#2C3E50">• Audit di sicurezza</text>
  
  <!-- Infrastructure protection -->
  <rect x="300" y="350" width="200" height="45" rx="5" fill="#DDD" stroke="#2C3E50" stroke-width="1"/>
  <text x="400" y="365" text-anchor="middle" font-family="Arial, sans-serif" font-size="10" font-weight="bold" fill="#E17055">Protezione Infrastruttura</text>
  <text x="400" y="380" text-anchor="middle" font-family="Arial, sans-serif" font-size="9" fill="#2C3E50">Alimentazione ridondante • Raffreddamento</text>
  <text x="400" y="390" text-anchor="middle" font-family="Arial, sans-serif" font-size="9" fill="#2C3E50">Sistemi antincendio • Controllo accessi</text>
  
  <!-- Comparison text -->
  <text x="400" y="380" text-anchor="middle" font-family="Arial, sans-serif" font-size="11" fill="#636E72" font-style="italic">
    Un data center è più sicuro di Fort Knox - miliardi di dollari investiti in protezione
  </text>
  
  <!-- Network connections -->
  <path d="M 400 100 Q 300 50 200 80" stroke="#00B894" stroke-width="2" fill="none" stroke-dasharray="3,3"/>
  <path d="M 400 100 Q 500 50 600 80" stroke="#00B894" stroke-width="2" fill="none" stroke-dasharray="3,3"/>
  <text x="300" y="40" font-family="Arial, sans-serif" font-size="10" fill="#00B894">Connessioni ridondante</text>
  <text x="500" y="40" font-family="Arial, sans-serif" font-size="10" fill="#00B894">Multiple ISP</text>
</svg>
